<svg width="200" height="82" viewBox="0 0 200 82" fill="none" xmlns="http://www.w3.org/2000/svg">
<path d="M0 81.5522V69.9019H42.718V81.5522H0Z" fill="#5B8DC5"/>
<path d="M177.153 66.0187C172.518 66.0187 168.484 65.2559 165.053 63.7301C161.621 62.2043 158.972 60.0624 157.106 57.3043C155.24 54.5461 154.307 51.2892 154.307 47.5335H167.852C167.852 49.7048 168.695 51.4359 170.381 52.727C172.126 53.9593 174.474 54.5755 177.424 54.5755C180.254 54.5755 182.451 53.9593 184.016 52.727C185.642 51.4946 186.455 49.7928 186.455 47.6215C186.455 45.7436 185.852 44.1299 184.648 42.7801C183.444 41.4304 181.759 40.5208 179.591 40.0514L172.909 38.5549C167.31 37.2639 162.946 34.8872 159.815 31.4249C156.745 27.9039 155.21 23.62 155.21 18.5733C155.21 14.8175 156.083 11.5606 157.828 8.8025C159.635 5.9857 162.163 3.81441 165.414 2.28865C168.665 0.762882 172.518 0 176.973 0C183.715 0 189.043 1.64313 192.956 4.9294C196.93 8.15698 198.916 12.5289 198.916 18.0451H185.371C185.371 15.9912 184.618 14.3774 183.113 13.2037C181.668 12.0301 179.561 11.4432 176.792 11.4432C174.203 11.4432 172.217 12.0301 170.832 13.2037C169.447 14.3187 168.755 15.9325 168.755 18.0451C168.755 19.923 169.297 21.5368 170.381 22.8865C171.524 24.1775 173.12 25.0578 175.167 25.5272L182.21 27.1117C188.05 28.4027 192.475 30.7501 195.485 34.1537C198.495 37.4986 200 41.7825 200 47.0053C200 50.7611 199.037 54.0767 197.11 56.9522C195.244 59.8276 192.595 62.0576 189.164 63.6421C185.792 65.2265 181.789 66.0187 177.153 66.0187Z" fill="white"/>
<path d="M105.99 65.1391V0.880859H148.433V13.2044H119.355V27.4644H146.085V39.7879H119.536V65.1391H105.99Z" fill="white"/>
<path d="M52.4258 65.1391V0.880859H73.8276C78.403 0.880859 82.3763 1.73177 85.7476 3.43358C89.1791 5.1354 91.828 7.54141 93.6943 10.6516C95.6207 13.7032 96.584 17.3122 96.584 21.4787V44.4532C96.584 48.5611 95.6207 52.1701 93.6943 55.2803C91.828 58.3905 89.1791 60.8259 85.7476 62.5864C82.3763 64.2882 78.403 65.1391 73.8276 65.1391H52.4258ZM65.9712 52.8156H73.8276C76.5969 52.8156 78.8244 52.0527 80.51 50.527C82.1957 49.0012 83.0385 46.9766 83.0385 44.4532V21.4787C83.0385 19.014 82.1957 17.0188 80.51 15.493C78.8244 13.9672 76.5969 13.2044 73.8276 13.2044H65.9712V52.8156Z" fill="white"/>
</svg>
